<svg xmlns="http://www.w3.org/2000/svg" viewBox="0 0 1076.0 550" width="1076.0" height="550" role="img" aria-label="warden sits between an AI agent and everything it can reach"><title>warden sits between an AI agent and everything it can reach</title><defs><marker id="arrow" viewBox="0 0 10 10" refX="9" refY="5" markerWidth="7" markerHeight="7" orient="auto"><path d="M0,1 L9,5 L0,9 z" fill="#8B85A6"/></marker><marker id="arrowbad" viewBox="0 0 10 10" refX="9" refY="5" markerWidth="7" markerHeight="7" orient="auto"><path d="M0,1 L9,5 L0,9 z" fill="#B23A34"/></marker></defs><rect x="24.0" y="52.0" width="282.0" height="116.0" rx="7" fill="#FBEAE8" stroke="#B23A34"/><rect x="24.0" y="216.0" width="282.0" height="136.0" rx="7" fill="#FBEAE8" stroke="#B23A34"/><rect x="424.0" y="202.0" width="272.0" height="164.0" rx="7" fill="#EEE9FC" stroke="#6D4FD6"/><rect x="784.0" y="202.0" width="272.0" height="164.0" rx="7" fill="#E3F2EB" stroke="#2E7D5B"/><path d="M165.0,152.0 L165.0,260.0" fill="none" stroke="#8B85A6" stroke-width="1.6" marker-end="url(#arrow)"/><rect x="96.6" y="197.0" width="136.8" height="18" rx="9" fill="#EEE9FC" stroke="#6D4FD6" stroke-width="0.8"/><text x="165.0" y="206.0" fill="#3F2E8C" font-family="ui-monospace, SFMono-Regular, Menlo, Consolas, monospace" font-size="11" text-anchor="middle" dominant-baseline="central">the agent reads it</text><path d="M290.0,281.28 L394.0,281.28 L394.0,298.0 L440.0,298.0" fill="none" stroke="#8B85A6" stroke-width="1.6" marker-end="url(#arrow)"/><rect x="300.0" y="272.3" width="84.0" height="18" rx="9" fill="#EEE9FC" stroke="#6D4FD6" stroke-width="0.8"/><text x="342.0" y="281.3" fill="#3F2E8C" font-family="ui-monospace, SFMono-Regular, Menlo, Consolas, monospace" font-size="11" text-anchor="middle" dominant-baseline="central">tool calls</text><path d="M290.0,314.72 L394.0,314.72 L394.0,298.0 L440.0,298.0" fill="none" stroke="#8B85A6" stroke-width="1.6" marker-end="url(#arrow)"/><rect x="300.0" y="305.7" width="84.0" height="18" rx="9" fill="#EEE9FC" stroke="#6D4FD6" stroke-width="0.8"/><text x="342.0" y="314.7" fill="#3F2E8C" font-family="ui-monospace, SFMono-Regular, Menlo, Consolas, monospace" font-size="11" text-anchor="middle" dominant-baseline="central">other HTTP</text><path d="M680.0,298.0 L725,298.0 L725,268.0 L800.0,268.0" fill="none" stroke="#8B85A6" stroke-width="1.6" marker-end="url(#arrow)"/><rect x="730.4" y="259.0" width="64.2" height="18" rx="9" fill="#EEE9FC" stroke="#6D4FD6" stroke-width="0.8"/><text x="762.5" y="268.0" fill="#3F2E8C" font-family="ui-monospace, SFMono-Regular, Menlo, Consolas, monospace" font-size="11" text-anchor="middle" dominant-baseline="central">allowed</text><path d="M680.0,298.0 L725,298.0 L725,328.0 L800.0,328.0" fill="none" stroke="#8B85A6" stroke-width="1.6" marker-end="url(#arrow)"/><rect x="730.4" y="319.0" width="64.2" height="18" rx="9" fill="#EEE9FC" stroke="#6D4FD6" stroke-width="0.8"/><text x="762.5" y="328.0" fill="#3F2E8C" font-family="ui-monospace, SFMono-Regular, Menlo, Consolas, monospace" font-size="11" text-anchor="middle" dominant-baseline="central">allowed</text><path d="M560.0,350.0 L560.0,438.0 L800.0,438.0" fill="none" stroke="#B23A34" stroke-width="1.6" stroke-dasharray="6 4" marker-end="url(#arrowbad)"/><rect x="572.0" y="429.0" width="216.0" height="18" rx="9" fill="#FBEAE8" stroke="#B23A34" stroke-width="0.8"/><text x="680.0" y="438.0" fill="#7A241F" font-family="ui-monospace, SFMono-Regular, Menlo, Consolas, monospace" font-size="11" text-anchor="middle" dominant-baseline="central">refused · not an approved host</text><path d="M165.0,336.0 L165.0,530 L920.0,530 L920.0,466.0" fill="none" stroke="#B23A34" stroke-width="1.6" stroke-dasharray="6 4" marker-end="url(#arrowbad)"/><rect x="421.3" y="521.0" width="242.4" height="18" rx="9" fill="#FBEAE8" stroke="#B23A34" stroke-width="0.8"/><text x="542.5" y="530.0" fill="#7A241F" font-family="ui-monospace, SFMono-Regular, Menlo, Consolas, monospace" font-size="11" text-anchor="middle" dominant-baseline="central">blocked · no route off the network</text><rect x="40.0" y="96.0" width="250.0" height="56.0" rx="5" fill="#B23A34" stroke="#8B2A25"/><text x="165.0" y="117.0" fill="#FFFFFF" font-family="ui-monospace, SFMono-Regular, Menlo, Consolas, monospace" font-size="14" font-weight="600" text-anchor="middle" dominant-baseline="central">An attacker</text><text x="165.0" y="131.0" fill="#FFFFFF" font-family="ui-monospace, SFMono-Regular, Menlo, Consolas, monospace" font-size="12" font-weight="400" text-anchor="middle" dominant-baseline="central">plants text the agent reads</text><rect x="40.0" y="260.0" width="250.0" height="76.0" rx="38.0" fill="#B23A34" stroke="#8B2A25"/><text x="165.0" y="291.0" fill="#FFFFFF" font-family="ui-monospace, SFMono-Regular, Menlo, Consolas, monospace" font-size="14" font-weight="600" text-anchor="middle" dominant-baseline="central">AI agent</text><text x="165.0" y="305.0" fill="#FFFFFF" font-family="ui-monospace, SFMono-Regular, Menlo, Consolas, monospace" font-size="12" font-weight="400" text-anchor="middle" dominant-baseline="central">reads text it cannot trust</text><polygon points="452.0,246.0 668.0,246.0 680.0,298.0 668.0,350.0 452.0,350.0 440.0,298.0" fill="#4527A0" stroke="#341E7A"/><text x="560.0" y="284.0" fill="#FFFFFF" font-family="ui-monospace, SFMono-Regular, Menlo, Consolas, monospace" font-size="14" font-weight="600" text-anchor="middle" dominant-baseline="central">warden</text><text x="560.0" y="298.0" fill="#FFFFFF" font-family="ui-monospace, SFMono-Regular, Menlo, Consolas, monospace" font-size="12" font-weight="400" text-anchor="middle" dominant-baseline="central">tool API :8080 · proxy :3128</text><text x="560.0" y="312.0" fill="#FFFFFF" font-family="ui-monospace, SFMono-Regular, Menlo, Consolas, monospace" font-size="12" font-weight="400" text-anchor="middle" dominant-baseline="central">decide, record, then act</text><rect x="800.0" y="246.0" width="240.0" height="44.0" rx="5" fill="#2E7D5B" stroke="#226046"/><text x="920.0" y="268.0" fill="#FFFFFF" font-family="ui-monospace, SFMono-Regular, Menlo, Consolas, monospace" font-size="14" font-weight="600" text-anchor="middle" dominant-baseline="central">Customer data · mail</text><rect x="800.0" y="306.0" width="240.0" height="44.0" rx="5" fill="#2E7D5B" stroke="#226046"/><text x="920.0" y="328.0" fill="#FFFFFF" font-family="ui-monospace, SFMono-Regular, Menlo, Consolas, monospace" font-size="14" font-weight="600" text-anchor="middle" dominant-baseline="central">The internet</text><rect x="800.0" y="410.0" width="240.0" height="56.0" rx="5" fill="#B23A34" stroke="#8B2A25"/><text x="920.0" y="431.0" fill="#FFFFFF" font-family="ui-monospace, SFMono-Regular, Menlo, Consolas, monospace" font-size="14" font-weight="600" text-anchor="middle" dominant-baseline="central">The attacker's server</text><text x="920.0" y="445.0" fill="#FFFFFF" font-family="ui-monospace, SFMono-Regular, Menlo, Consolas, monospace" font-size="12" font-weight="400" text-anchor="middle" dominant-baseline="central">where the instruction pointed</text><rect x="31.0" y="57.0" width="172.0" height="19" rx="4" fill="#FBEAE8"/><text x="37.0" y="69.0" fill="#7A241F" font-family="ui-monospace, SFMono-Regular, Menlo, Consolas, monospace" font-size="11.5" font-weight="600" letter-spacing="0.9">OUTSIDE YOUR CONTROL</text><rect x="31.0" y="221.0" width="86.2" height="19" rx="4" fill="#FBEAE8"/><text x="37.0" y="233.0" fill="#7A241F" font-family="ui-monospace, SFMono-Regular, Menlo, Consolas, monospace" font-size="11.5" font-weight="600" letter-spacing="0.9">UNTRUSTED</text><rect x="431.0" y="207.0" width="172.0" height="19" rx="4" fill="#EEE9FC"/><text x="437.0" y="219.0" fill="#3F2E8C" font-family="ui-monospace, SFMono-Regular, Menlo, Consolas, monospace" font-size="11.5" font-weight="600" letter-spacing="0.9">THE ONLY WAY THROUGH</text><rect x="791.0" y="207.0" width="109.6" height="19" rx="4" fill="#E3F2EB"/><text x="797.0" y="219.0" fill="#1D4E39" font-family="ui-monospace, SFMono-Regular, Menlo, Consolas, monospace" font-size="11.5" font-weight="600" letter-spacing="0.9">YOUR SYSTEMS</text></svg>
